<svg xmlns="http://www.w3.org/2000/svg" viewBox="0 0 64 40"><g fill="none" fill-rule="evenodd"><circle cx="20" cy="20" r="20" fill="#000" opacity=".2"/><path fill="#19B89D" fill-rule="nonzero" d="M31 22.8c2 0 3.5 1.6 3.5 3.6S32.9 30 31 30s-3.5-1.6-3.5-3.6 1.5-3.6 3.5-3.6zm22 0c1.9 0 3.5 1.6 3.5 3.6S54.9 30 52.9 30s-3.5-1.6-3.5-3.6 1.6-3.6 3.5-3.6zm-9.2-10.4a1.3 1.3 0 0 1 1.8 0l3.7 3.8c4.5-.1 9.7 1.1 14 3.7.4.3.6.7.6 1.1 0 3-2.1 5.6-5 6.1a6.2 6.2 0 0 0-6-6.9 6.2 6.2 0 0 0-6 7h-9.7l1.4-2.7v-.2l3-5.6a11 11 0 0 0 5.2-1.4l-3-3a1.3 1.3 0 0 1 0-2zm-7.7 1c.7-.2 1.4.3 1.6 1l.8 2.6a3.5 3.5 0 0 1-.3 2.5L36.5 23l-.2.4a6 6 0 0 0-5.3-3 6.2 6.2 0 0 0-6 6.8 6 6 0 0 1-4.4-3.3 1.3 1.3 0 0 1 .2-1.4l1-1.3-1.4-1.3c-.8-.7-.4-2 .6-2.2l6.7-1.3h.2c.4-.2 1.1-.7 1.1-1.6 0-.7.6-1.3 1.3-1.3.7 0 1.3.7 1.3 1.4a4.1 4.1 0 0 1-.4 1.6 22.7 22.7 0 0 1 4.7 1.1l-.7-2.4a1.3 1.3 0 0 1 1-1.7z"/></g></svg>