<svg xmlns="http://www.w3.org/2000/svg" viewBox="0 0 50 32"><path fill="#9EABB2" d="M49 14A29.6 29.6 0 0 0 24.9 0 29.5 29.5 0 0 0 .5 14c-.3.7-.5 1.4-.5 2 0 .6.2 1.2.6 1.9a29.5 29.5 0 0 0 24.2 14 29.4 29.4 0 0 0 24.3-14 5 5 0 0 0 .5-2c0-.5-.2-1.2-.5-1.8zM19 6.6a8.1 8.1 0 0 1 6-2.5c.3 0 .6.2.8.4.3.3.4.6.4 1 0 .3 0 .6-.4.9a1.3 1.3 0 0 1-.9.4 5 5 0 0 0-4 1.7 5.5 5.5 0 0 0-1.8 4c0 .4 0 .7-.3 1a1.3 1.3 0 0 1-1 .4c-.4 0-.7-.2-1-.4a1.3 1.3 0 0 1-.3-1A8 8 0 0 1 19 6.6zm18 18.5a22.8 22.8 0 0 1-12 3.4c-4.4 0-8.4-1.1-12.1-3.4a28.6 28.6 0 0 1-9.3-9c2.8-4.4 6.4-7.6 10.6-9.8a12.1 12.1 0 0 0-1.7 6.2 12 12 0 0 0 3.6 8.8 12 12 0 0 0 8.8 3.6 12 12 0 0 0 8.8-3.6 12 12 0 0 0 3.6-8.8c0-2.2-.6-4.3-1.7-6.2 4.2 2.2 7.8 5.4 10.6 9.8a28.6 28.6 0 0 1-9.3 9z"/></svg>