<svg xmlns="http://www.w3.org/2000/svg"><symbol viewBox="0 0 44 40" id="blacklist"><g fill="#9EABB2"><path d="M11 0a5 5 0 0 0-4.9 4.9L6 30.2h2.7l.1-25.3c0-1.2 1-2.2 2.3-2.2h27V0h-27z"></path><path d="M38.1 0A5.1 5.1 0 0 0 33 5.1v28.4c0 2-1.7 3.7-3.7 3.7a3.7 3.7 0 0 1-3.8-3.7v-3.3c0-.7-.6-1.3-1.3-1.3H1.3c-.7 0-1.3.6-1.3 1.3v3.3a6.4 6.4 0 0 0 6.4 6.4v-2.7a3.7 3.7 0 0 1-3.7-3.7v-2h20.2v2a6.4 6.4 0 0 0 6.4 6.4 6.4 6.4 0 0 0 6.4-6.4v-21h6.2c.7 0 1.3-.6 1.3-1.4v-6A5.1 5.1 0 0 0 38.1 0zm2.4 9.8h-4.8V5A2.4 2.4 0 0 1 38 2.7 2.4 2.4 0 0 1 40.5 5v4.7z"></path><path d="M6.1 37.2H29v2.7H6zM20 7.5h-7a1.3 1.3 0 1 0 0 2.7h7a1.3 1.3 0 1 0 0-2.7zm8 5.4H13a1.3 1.3 0 1 0 0 2.7h15a1.3 1.3 0 1 0 0-2.7zm0 5.3H13a1.3 1.3 0 1 0 0 2.7h15a1.3 1.3 0 1 0 0-2.7zm0 5.4H13a1.3 1.3 0 1 0 0 2.7h15a1.3 1.3 0 1 0 0-2.7z"></path></g></symbol><symbol viewBox="0 0 24 24" id="facebook"><path fill="#4C545C" d="M22.68 0H1.32C.6 0 0 .6 0 1.32v21.36C0 23.4.6 24 1.32 24h11.5v-9.3H9.69v-3.62h3.13V8.41c0-3.1 1.9-4.79 4.66-4.79 1.32 0 2.46.1 2.8.15V7h-1.92c-1.5 0-1.8.71-1.8 1.76v2.32h3.59l-.47 3.62h-3.12V24h6.12c.73 0 1.32-.6 1.32-1.32V1.32C24 .6 23.4 0 22.68 0z"></path></symbol><symbol viewBox="0 0 50 32" id="preview"><path fill="#9EABB2" d="M49 14A29.6 29.6 0 0 0 24.9 0 29.5 29.5 0 0 0 .5 14c-.3.7-.5 1.4-.5 2 0 .6.2 1.2.6 1.9a29.5 29.5 0 0 0 24.2 14 29.4 29.4 0 0 0 24.3-14 5 5 0 0 0 .5-2c0-.5-.2-1.2-.5-1.8zM19 6.6a8.1 8.1 0 0 1 6-2.5c.3 0 .6.2.8.4.3.3.4.6.4 1 0 .3 0 .6-.4.9a1.3 1.3 0 0 1-.9.4 5 5 0 0 0-4 1.7 5.5 5.5 0 0 0-1.8 4c0 .4 0 .7-.3 1a1.3 1.3 0 0 1-1 .4c-.4 0-.7-.2-1-.4a1.3 1.3 0 0 1-.3-1A8 8 0 0 1 19 6.6zm18 18.5a22.8 22.8 0 0 1-12 3.4c-4.4 0-8.4-1.1-12.1-3.4a28.6 28.6 0 0 1-9.3-9c2.8-4.4 6.4-7.6 10.6-9.8a12.1 12.1 0 0 0-1.7 6.2 12 12 0 0 0 3.6 8.8 12 12 0 0 0 8.8 3.6 12 12 0 0 0 8.8-3.6 12 12 0 0 0 3.6-8.8c0-2.2-.6-4.3-1.7-6.2 4.2 2.2 7.8 5.4 10.6 9.8a28.6 28.6 0 0 1-9.3 9z"></path></symbol><symbol viewBox="0 0 24 20" id="twitter"><path fill="#4C545C" d="M24 2.56a9.83 9.83 0 0 1-2.83.77A4.93 4.93 0 0 0 23.34.61a9.86 9.86 0 0 1-3.13 1.2 4.92 4.92 0 0 0-3.6-1.56 4.93 4.93 0 0 0-4.8 6.04A13.98 13.98 0 0 1 1.68 1.15 4.93 4.93 0 0 0 3.2 7.72a4.9 4.9 0 0 1-2.23-.61A4.93 4.93 0 0 0 4.91 12a4.93 4.93 0 0 1-2.22.08 4.93 4.93 0 0 0 4.6 3.42A9.9 9.9 0 0 1 0 17.54a13.94 13.94 0 0 0 7.55 2.21c9.14 0 14.3-7.72 14-14.64A10.03 10.03 0 0 0 24 2.56z"></path></symbol><symbol viewBox="0 0 125 125" id="logo"><g fill="none" fill-rule="evenodd" stroke="#26BBA4" stroke-width="10"><circle cx="62.5" cy="62.5" r="57.5"></circle><path stroke-linecap="round" d="M85.48 85.48a32.5 32.5 0 1 1 0-45.96"></path></g></symbol><symbol viewBox="0 0 23 19" id="twitter"><path fill="#fff" d="M22.7 2.2c-.83.37-1.73.62-2.67.73A4.7 4.7 0 0 0 22.08.35c-.9.53-1.9.92-2.96 1.13a4.66 4.66 0 0 0-7.94 4.25c-3.87-.2-7.3-2.05-9.6-4.87a4.66 4.66 0 0 0 1.44 6.22 4.65 4.65 0 0 1-2.1-.58v.06c0 2.26 1.6 4.14 3.73 4.57a4.7 4.7 0 0 1-2.1.08 4.66 4.66 0 0 0 4.35 3.23A9.35 9.35 0 0 1 0 16.37c2.13 1.37 4.6 2.1 7.14 2.1 8.57 0 13.25-7.1 13.25-13.26v-.6A9.47 9.47 0 0 0 22.7 2.2Z"/></symbol><symbol viewBox="0 0 40 40" id="facebook"><path fill="#fff" fill-rule="evenodd" d="M0 20c0 9.89 7.22 18.11 16.67 19.78l.1-.1-.1-.01V25.56h-5V20h5v-4.44c0-5 3.22-7.78 7.77-7.78 1.45 0 3 .22 4.45.44v5.11h-2.56c-2.44 0-3 1.23-3 2.78V20h5.34l-.9 5.56h-4.44v14.1l-.1.03.1.09A20.16 20.16 0 0 0 40 20C40 9 31 0 20 0S0 9 0 20Z" clip-rule="evenodd"/></symbol><symbol viewBox="0 0 48 48" id="instagram"><path fill="#fff" d="M24.02.02c-6.52 0-7.34.03-9.9.14-2.55.12-4.3.53-5.82 1.12-1.6.6-3.05 1.55-4.25 2.77A11.76 11.76 0 0 0 1.28 8.3c-.6 1.52-1 3.27-1.12 5.82-.14 3.3-.19 6.6-.14 9.9 0 6.5.03 7.33.14 9.88.12 2.56.53 4.3 1.12 5.83.6 1.6 1.55 3.05 2.77 4.25a11.76 11.76 0 0 0 4.25 2.77c1.52.59 3.27 1 5.82 1.1 2.56.13 3.38.15 9.9.15 6.5 0 7.33-.02 9.88-.14 2.56-.12 4.3-.52 5.83-1.11 1.6-.6 3.05-1.55 4.25-2.77a11.76 11.76 0 0 0 2.77-4.25c.59-1.53 1-3.27 1.1-5.83.13-2.55.15-3.37.15-9.9 0-6.5-.02-7.32-.14-9.88-.12-2.55-.52-4.3-1.11-5.82-.6-1.6-1.55-3.05-2.77-4.25a11.76 11.76 0 0 0-4.25-2.77C38.2.68 36.46.28 33.9.16a163 163 0 0 0-9.88-.14Zm0 4.32c6.4 0 7.16.03 9.69.14 2.34.1 3.6.5 4.45.83 1.12.43 1.92.95 2.76 1.8.8.77 1.4 1.7 1.8 2.75.32.85.72 2.12.82 4.46.12 2.53.14 3.29.14 9.7 0 6.4-.02 7.16-.14 9.69-.1 2.34-.5 3.6-.82 4.45a7.43 7.43 0 0 1-1.8 2.76 7.43 7.43 0 0 1-2.76 1.8c-.84.32-2.11.72-4.45.82-2.53.12-3.3.14-9.7.14-6.4 0-7.16-.02-9.7-.14-2.33-.1-3.6-.5-4.45-.82a7.43 7.43 0 0 1-2.76-1.8 7.43 7.43 0 0 1-1.8-2.76c-.32-.84-.71-2.11-.82-4.45a166.5 166.5 0 0 1-.14-9.7c0-6.4.03-7.16.14-9.7.1-2.33.5-3.6.83-4.45.39-1.04 1-2 1.8-2.76a7.43 7.43 0 0 1 2.75-1.8 13.7 13.7 0 0 1 4.46-.82c2.53-.11 3.29-.14 9.7-.14Zm0 7.35a12.32 12.32 0 1 0 0 24.64 12.32 12.32 0 0 0 0-24.64Zm0 20.33a8 8 0 1 1 0-16 8 8 0 0 1 0 16Zm15.68-20.8a2.88 2.88 0 1 0-5.76 0 2.88 2.88 0 0 0 5.76 0Z"/></symbol></svg>