<svg xmlns="http://www.w3.org/2000/svg" viewBox="0 0 44 40"><g fill="#9EABB2"><path d="M11 0a5 5 0 0 0-4.9 4.9L6 30.2h2.7l.1-25.3c0-1.2 1-2.2 2.3-2.2h27V0h-27z"/><path d="M38.1 0A5.1 5.1 0 0 0 33 5.1v28.4c0 2-1.7 3.7-3.7 3.7a3.7 3.7 0 0 1-3.8-3.7v-3.3c0-.7-.6-1.3-1.3-1.3H1.3c-.7 0-1.3.6-1.3 1.3v3.3a6.4 6.4 0 0 0 6.4 6.4v-2.7a3.7 3.7 0 0 1-3.7-3.7v-2h20.2v2a6.4 6.4 0 0 0 6.4 6.4 6.4 6.4 0 0 0 6.4-6.4v-21h6.2c.7 0 1.3-.6 1.3-1.4v-6A5.1 5.1 0 0 0 38.1 0zm2.4 9.8h-4.8V5A2.4 2.4 0 0 1 38 2.7 2.4 2.4 0 0 1 40.5 5v4.7z"/><path d="M6.1 37.2H29v2.7H6zM20 7.5h-7a1.3 1.3 0 1 0 0 2.7h7a1.3 1.3 0 1 0 0-2.7zm8 5.4H13a1.3 1.3 0 1 0 0 2.7h15a1.3 1.3 0 1 0 0-2.7zm0 5.3H13a1.3 1.3 0 1 0 0 2.7h15a1.3 1.3 0 1 0 0-2.7zm0 5.4H13a1.3 1.3 0 1 0 0 2.7h15a1.3 1.3 0 1 0 0-2.7z"/></g></svg>