<svg xmlns="http://www.w3.org/2000/svg" width="264" height="49pt" viewBox="0 0 198 49"><path fill="#fff" d="M31.2 10.3c-6 0-12 1.3-18.3 3-.8.2-1.6.7-2 1.4a5 5 0 0 0-.6 1.8c-.6 3.4-.5 6.7-.4 10.4 0 .8.1 1.8.5 2.5.4.6 1.1 1 2 1l3.2.5-.2 6.6c0 .6.2 1 .5 1.3.3.2.6.3 1 .3.6 0 1.4-.2 1.8-1a24 24 0 0 1 4.8-6.8c5.5.2 10.3-.1 15.7-.5 1.9 0 3.2-1.6 3.6-2.9 1-3.2 1.2-7.2 1.3-11.3 0-1.6-.5-3.1-1.5-4-1-.7-2-1-3.1-1.3-3-.6-5.8-1-8.3-1zm7.9 2.5c1 .3 2 .6 2.5 1 1 1 1 1.7 1 2.9-.2 3.9-.4 7.7-1.3 10.6-.4 1-1 1.8-2.3 2-5.5.3-10.3.6-15.8.5a.8.8 0 0 0-.6.2 26 26 0 0 0-5.3 7.4l-.2.1H17l.2-7.3a.8.8 0 0 0-.7-.8 73.2 73.2 0 0 1-3.9-.5c-.5 0-.7-.2-.9-.4l-.3-1.7a47.9 47.9 0 0 1 .8-11.3c.3-.5.8-.6 1.3-.7 6-1.7 12-3 17.6-3 2.8.1 5.7.4 8 1zM18 19c-1 1-.8 2.4-.2 3.3.4.5.9.9 1.5 1 .9 0 1.4-.3 2-.7 1-1 1.1-2.5.3-3.6a2.2 2.2 0 0 0-1.7-1c-.9 0-1.5.4-2 1zm9-.8c-.8 0-1.5.6-2 1.2-.4.7-.7 1.6-.3 2.5.8 1.7 3.3 1.7 4.3 0 .5-.8.3-1.7 0-2.4-.3-.6-.9-1.2-1.6-1.3a2 2 0 0 0-.4 0zm7.4.1a2.9 2.9 0 0 0-.8.1c-1 .3-1.9 1.3-1.7 2.7 0 .6.3 1.3.9 1.7.5.5 1.3.7 2.2.5 1-.2 1.6-1 1.8-1.7.2-.8.1-1.6-.3-2.2a2.7 2.7 0 0 0-2.1-1zM20 19.6c.1 0 .3 0 .4.3.4.5.3 1.2 0 1.5-.4.3-.6.3-.8.3l-.4-.3c-.3-.4-.3-1 0-1.4.2-.2.5-.4.8-.4zm7.2.2.5.4c.2.3.2.6 0 .9-.4.7-1.3.5-1.5.2 0-.1 0-.6.3-1 .2-.4.6-.6.7-.5zm8.1.5s.2.5 0 .9c0 .3-.2.5-.5.6-.5 0-.7 0-1-.2a1 1 0 0 1-.3-.7c0-.7.2-.9.6-1 .5 0 1 .1 1.2.4zm18.6-6.9a.9.9 0 0 1 .2-.5.7.7 0 0 1 .5-.2h5.2c.2 0 .4 0 .6.2a.7.7 0 0 1 .3.5v8.4h8.7v-8.4a.8.8 0 0 1 .8-.7h5.2l.6.1.2.6V38c0 .3 0 .5-.2.6l-.6.2h-5.2a.8.8 0 0 1-.6-.2l-.2-.6V28h-8.7v10l-.3.6a1 1 0 0 1-.6.2h-5.2c-.5 0-.7-.3-.7-.7zm48 25a1.1 1.1 0 0 1-.4.3 2.4 2.4 0 0 1-.5 0h-3.2a1.2 1.2 0 0 1-.4-.3 1.8 1.8 0 0 1-.2-.5 3.7 3.7 0 0 1-.2-.5l-.6-2.2-.7 1.2a6.7 6.7 0 0 1-1.3 1.3 7 7 0 0 1-1.8 1 8.4 8.4 0 0 1-6.1-.4 8.4 8.4 0 0 1-2.8-2c-.8-1-1.4-2-1.8-3.2a11.3 11.3 0 0 1-.7-3.8V17.8c0-.4.1-.8.3-1 .2-.2.5-.4 1-.4h4c.5 0 .9.1 1 .3.2.2.3.5.3 1V29c0 .5.2 1 .4 1.5a4.3 4.3 0 0 0 2.2 2 3.2 3.2 0 0 0 2.8 0 4.4 4.4 0 0 0 2.2-2c.2-.4.3-1 .3-1.4V17a1 1 0 0 1 .4-.4l.5-.2h4.4c.5 0 .9 0 1.1.3.2.3.3.6.3 1v19.7l-.1.6a1 1 0 0 1-.4.4zm20.5-2.4a80 80 0 0 1-2.3 2l-1.5.9a4.7 4.7 0 0 1-1.7.3c-1.6 0-3-.3-4.4-1a10.5 10.5 0 0 1-3.5-2.4c-1-1-1.7-2.2-2.2-3.6a12.5 12.5 0 0 1 0-9c.5-1.5 1.3-2.7 2.2-3.8a10.4 10.4 0 0 1 3.5-2.4c1.3-.6 2.8-1 4.4-1a5.3 5.3 0 0 1 1.8.4 6.5 6.5 0 0 1 1.4.7 43 43 0 0 1 2.3 2v-8c0-.3.1-.7.3-1 .3-.2.6-.3 1-.3h4.5l.5.4.3.4.1.5v26.3c0 1-.4 1.4-1.4 1.4h-3.4l-.6-.1a.8.8 0 0 1-.3-.3 1.6 1.6 0 0 1-.2-.4l-.3-.6zm-10.1-8.4c0 .8.1 1.5.3 2.2a5.1 5.1 0 0 0 1 1.7 4.8 4.8 0 0 0 3.8 1.6 5.6 5.6 0 0 0 3.8-1.5 5.6 5.6 0 0 0 1.2-1.7 5.5 5.5 0 0 0 .5-2v-.3c0-.7-.1-1.4-.4-2.1a5.7 5.7 0 0 0-1.2-1.8 5.6 5.6 0 0 0-1.7-1.2 5.3 5.3 0 0 0-2.2-.5c-.8 0-1.5.2-2.1.5a4.8 4.8 0 0 0-1.6 1.2 5.5 5.5 0 0 0-1 1.8 6.3 6.3 0 0 0-.4 2.1zm37.3 8.4a61 61 0 0 1-2.3 2l-1.5.9a4.7 4.7 0 0 1-1.7.3c-1.6 0-3-.3-4.4-1a10.6 10.6 0 0 1-3.5-2.4 11.1 11.1 0 0 1-3.1-8.2c0-1.6.3-3.1.8-4.5a11.3 11.3 0 0 1 2.3-3.7 10.4 10.4 0 0 1 3.5-2.4c1.3-.6 2.8-1 4.4-1 .6 0 1.2.2 1.7.4a6.5 6.5 0 0 1 1.5.7l1.2 1 1 1v-8c0-.3.2-.7.4-1 .2-.2.6-.3 1-.3h4.5l.4.4c.2 0 .3.2.4.4l.1.5v26.3c0 1-.5 1.4-1.4 1.4h-3.5l-.5-.1a.9.9 0 0 1-.3-.3 1.8 1.8 0 0 1-.3-.4l-.2-.6zm-10.2-8.4c0 .8.2 1.5.4 2.2a5.2 5.2 0 0 0 1 1.7 4.9 4.9 0 0 0 3.7 1.6 5.5 5.5 0 0 0 2.1-.4 5.4 5.4 0 0 0 1.8-1 5.6 5.6 0 0 0 1.2-1.8 5.5 5.5 0 0 0 .5-2v-.3a5.7 5.7 0 0 0-1.6-4 5.5 5.5 0 0 0-1.8-1.1 5.3 5.3 0 0 0-2.2-.5c-.7 0-1.4.2-2 .5a4.9 4.9 0 0 0-1.7 1.2 5.6 5.6 0 0 0-1 1.8 6.4 6.4 0 0 0-.4 2.1zM161 11.1c0-.3 0-.6.3-.9.2-.3.5-.4 1-.4h4.2l.4.1.4.3a1.5 1.5 0 0 1 .4 1v26.2c0 .5-.2.8-.4 1-.3.3-.6.4-1 .4h-4c-.5 0-.8-.1-1-.4-.2-.2-.3-.5-.3-1zm29.6 25a11.7 11.7 0 0 1-3.5 2.2 11.4 11.4 0 0 1-8.6-.1 11.8 11.8 0 0 1-3.8-2.4 11.7 11.7 0 0 1-2.6-3.7c-.6-1.4-1-2.9-1-4.5a11.8 11.8 0 0 1 1.5-5.8 11.7 11.7 0 0 1 1.7-2.3 10.8 10.8 0 0 1 5-3 10.8 10.8 0 0 1 5.8 0 11 11 0 0 1 4.8 2.8 11.3 11.3 0 0 1 1.7 2.1 10.4 10.4 0 0 1 1.5 6.7c0 .4-.1.7-.3 1l-.8.4-1.7.2h-12.6a4.4 4.4 0 0 0 3.4 3.7 6.3 6.3 0 0 0 1.5.2l1.3-.1a8.7 8.7 0 0 0 1.3-.4 7.3 7.3 0 0 0 1.1-.5l.9-.6.4-.4a.9.9 0 0 1 .5 0h.4l.6.5 1.8 2.2a1.1 1.1 0 0 1 .3.7 1 1 0 0 1-.1.7l-.5.4zM182 21.5a3 3 0 0 0-1.3.2 5 5 0 0 0-1.2.8 6.4 6.4 0 0 0-1 1 6.5 6.5 0 0 0-.7 1.2h9a10.6 10.6 0 0 0-.8-1.3 5.6 5.6 0 0 0-1-1 4.3 4.3 0 0 0-1.3-.7c-.5-.2-1-.2-1.7-.2zm0 0"/></svg>