<svg viewBox="0 0 0 0"><symbol xmlns="http://www.w3.org/2000/svg" id="team-builder" viewBox="0 0 64 64"><g fill="none"><path fill="#EFEFF4" d="M64 14.5v41.7H0V14.5l3.8-3.8h56.5z"/><path fill="#DADAE5" d="M64 14.5v41.7H32V10.7h28.3z"/><path fill="#474F54" d="M0 0h64v15.5H0z"/><path fill="#32393F" d="M32 0h32v15.5H32z"/><path fill="#FF637B" d="M7.8 5.8h3.6v3.9H7.8zm7.3 0h3.7v3.9h-3.7zm7.4 0h3.7v3.9h-3.7zm23.1 36.4V64H34.4v-3.7h-3.8V64H19.4V42.2L30.8 33h3z"/><path fill="#DADAE5" d="M11.6 22.3h41.7v3.9H11.6z"/><path fill="#C9C9D3" d="M32 22.3h20.4v3.9H32z"/><path fill="#E63950" d="M45.6 42.2V64H33.9v-3.7H32V33h1.4z"/><path fill="#EFEFF4" d="M30 45.6h4v3.9h-4z"/><path fill="#DADAE5" d="M32 45.6h2v3.9h-2z"/><path fill="#676E74" d="M50.4 45.8 48 48.5 32.5 35 17 48.5l-2.5-2.7 18-15.7z"/><path fill="#474F54" d="m32 30 18.4 15.8-2.5 2.7L32 35z"/></g></symbol><symbol xmlns="http://www.w3.org/2000/svg" id="calculator" viewBox="0 0 64 64"><g fill="none"><path fill="#474F54" d="M64 0v41.25l-3.75 3.88H3.75L0 41.24V0z"/><path fill="#32393F" d="M64 0v41.25l-3.75 3.88H32V0z"/><path fill="#DADAE5" d="M22.63 50.88h18.75v11.24H22.61z"/><path fill="#C9C9D3" d="M32 50.88h9.38v11.24H32z"/><path fill="#EFEFF4" d="M0 41.25h64v11.5H0z"/><path fill="#DADAE5" d="M32 41.25h32v11.5H32z"/><path fill="#EFEFF4" d="M15.13 60.25h33.74V64H15.13z"/><path fill="#DADAE5" d="M32 60.25h16.88V64H32z"/><path fill="#549EF2" d="M20.75 7.5a13.14 13.14 0 0 0 0 26.25 13.14 13.14 0 0 0 0-26.25zm0 18.75a5.63 5.63 0 0 1-5.63-5.63A5.63 5.63 0 0 1 20.75 15a5.63 5.63 0 0 1 5.63 5.63 5.63 5.63 0 0 1-5.63 5.62z"/><path fill="#377FD2" d="M45.13 7.5H56.5v3.75H45.12zm-7.5 0h3.74v3.75h-3.74zm7.5 15H56.5v3.75H45.12zm-7.5 0h3.74v3.75h-3.74zm0-7.5H56.5v3.75H37.62zm0 15H56.5v3.75H37.62z"/></g></symbol><symbol xmlns="http://www.w3.org/2000/svg" id="karma" viewBox="0 0 64 64"><g fill="none"><path fill="#676E74" d="M26.38 52.63h11.25V64H26.37z"/><path fill="#333637" d="M32 52.63h5.63V64H32z"/><path fill="#4C545A" d="M22.63 47h18.75v9.38H22.61z"/><path fill="#52585C" d="M32 47h9.38v9.38H32z"/><path fill="#FFDA2D" d="M45.01 36.73a9.64 9.64 0 0 0-3.63 7.42V47H22.61v-2.85a9.04 9.04 0 0 0-3.3-7.13 20.46 20.46 0 0 1-7.95-16.27A20.59 20.59 0 0 1 19 4.74 20.7 20.7 0 0 1 36.42.45a20.69 20.69 0 0 1 15.9 16.66 20.48 20.48 0 0 1-7.3 19.61z"/><path fill="#FDBF00" d="M45.01 36.73a9.64 9.64 0 0 0-3.63 7.42V47H32V0c1.46 0 2.96.15 4.42.45a20.69 20.69 0 0 1 15.9 16.66 20.48 20.48 0 0 1-7.3 19.61z"/><path fill="#676E74" d="M18.88 45.13h26.25v3.74H18.86z"/><path fill="#FF9100" d="m39.96 10.14 2.65 2.65-3.98 3.98-2.65-2.65z"/><path fill="#FDBF00" d="m25.37 24.73 2.65 2.65-3.98 3.98-2.65-2.65zm4.75 3.52h3.75v5.63h-3.74z"/><path fill="#FF9100" d="m38.63 24.73 3.98 3.98-2.65 2.65-3.98-3.98zm.87-5.86h5.63v3.75H39.5z"/><path fill="#FDBF00" d="m24.04 10.14 3.98 3.98-2.65 2.65-3.98-3.98zm-5.16 8.73h5.62v3.75h-5.63zM30.13 7.63h3.75v5.63h-3.76z"/><path fill="#FFDA2D" d="M0 18.88h7.63v3.75H0zm6.58-4.07L.83 11.06l2.08-3.12 5.75 3.75zM2.92 33.56.83 30.44l5.75-3.75 2.08 3.12z"/><path fill="#FDBF00" d="M56.38 18.88H64v3.75h-7.63zm4.7 14.68-5.74-3.75 2.07-3.12 5.76 3.75zm-3.66-18.75-2.09-3.12 5.76-3.75 2.07 3.12z"/><path fill="#FF9100" d="M32 7.63h1.88v5.62H32zm0 20.62h1.88v5.63H32z"/><path fill="#333637" d="M32 45.13h13.13v3.74H32z"/><path fill="#FDBF00" d="M32 11.38a9.38 9.38 0 1 0 0 18.75 9.38 9.38 0 0 0 0-18.75z"/><path fill="#FF9100" d="M32 30.13V11.38a9.38 9.38 0 0 1 0 18.74z"/><path fill="#FFDA2D" d="M30.13 18.88h3.75v3.75h-3.76z"/><path fill="#FDBF00" d="M32 18.88h1.88v3.75H32z"/></g></symbol><symbol xmlns="http://www.w3.org/2000/svg" id="supervisor" viewBox="0 0 64 64"><g><path fill="#676E74" d="M56.84 7.16a24.28 24.28 0 0 0-34.43 0 24.3 24.3 0 0 0-3.52 30l-2.51 2.55-1.36 6.14 4.21 4.22 5.1-2.4 2.5-2.56a24.25 24.25 0 0 0 30.01-3.52 24.28 24.28 0 0 0 0-34.43z"/><path fill="#474F54" d="m24.33 47.66 2.5-2.55a24.25 24.25 0 0 0 30.01-3.52 24.28 24.28 0 0 0 0-34.43L16.58 47.42l2.65 2.65 5.1-2.4z"/><path fill="#64E1DC" d="M54.21 9.79a20.56 20.56 0 0 0-14.58-6.04A20.63 20.63 0 0 0 19 24.37a20.56 20.56 0 0 0 6.04 14.59A20.56 20.56 0 0 0 39.63 45a20.63 20.63 0 0 0 20.62-20.63A20.56 20.56 0 0 0 54.21 9.8z"/><path fill="#00C8C8" d="M60.25 24.37A20.56 20.56 0 0 0 54.21 9.8L25.04 38.96A20.56 20.56 0 0 0 39.63 45a20.62 20.62 0 0 0 20.62-20.63z"/><path fill="#EFEFF4" d="M56.24 23.41c-.19-.3-2.98-4.91-7.28-8.37-2.63-2.11-5.82-3.8-9.33-3.8-9.24 0-16.32 11.68-16.61 12.17l-.58.96.58.96c.18.31 2.98 4.92 7.28 8.37 2.63 2.11 5.82 3.8 9.33 3.8 9.24 0 16.31-11.67 16.6-12.17l.58-.96-.57-.96z"/><path fill="#DADAE5" d="m56.24 25.33.57-.96-.57-.96a35 35 0 0 0-7.28-8.37L30.3 33.7c2.63 2.11 5.82 3.8 9.33 3.8 9.24 0 16.31-11.67 16.6-12.17z"/><path fill="#64E1DC" d="M43.6 20.4a5.6 5.6 0 0 0-3.97-1.65A5.63 5.63 0 0 0 34 24.37a5.6 5.6 0 0 0 1.65 3.98A5.6 5.6 0 0 0 39.63 30a5.63 5.63 0 0 0 5.62-5.63 5.6 5.6 0 0 0-1.65-3.97z"/><path fill="#00C8C8" d="M45.25 24.37a5.6 5.6 0 0 0-1.65-3.97l-7.95 7.95A5.6 5.6 0 0 0 39.63 30a5.63 5.63 0 0 0 5.62-5.63z"/><path fill="#676E74" d="M40.95 23.05a1.88 1.88 0 1 0-1.32 3.2 1.88 1.88 0 0 0 1.32-3.2z"/><path fill="#474F54" d="M41.5 24.37c0-.52-.2-.98-.55-1.32L38.3 25.7a1.88 1.88 0 0 0 3.2-1.33z"/><path fill="#575C60" d="m20.33 43.67-3.95-3.96L0 56.05l3.98 3.98L7.95 64l16.38-16.34z"/><path fill="#333637" d="m24.33 47.66-4-4L3.98 60.04 7.95 64z"/></g></symbol></svg>