<svg xmlns="http://www.w3.org/2000/svg" xmlns:xlink="http://www.w3.org/1999/xlink" width="709" height="506"><defs><filter id="a" width="103.2%" height="105.1%" x="-1.6%" y="-2.6%" filterUnits="objectBoundingBox"><feOffset in="SourceAlpha" result="shadowOffsetOuter1"/><feGaussianBlur in="shadowOffsetOuter1" result="shadowBlurOuter1" stdDeviation="3.5"/><feColorMatrix in="shadowBlurOuter1" values="0 0 0 0 0 0 0 0 0 0.145098039 0 0 0 0 0.180392157 0 0 0 0.181838768 0"/></filter><filter id="c" width="103.2%" height="147.9%" x="-1.6%" y="-24%" filterUnits="objectBoundingBox"><feOffset in="SourceAlpha" result="shadowOffsetOuter1"/><feGaussianBlur in="shadowOffsetOuter1" result="shadowBlurOuter1" stdDeviation="3.5"/><feColorMatrix in="shadowBlurOuter1" values="0 0 0 0 0 0 0 0 0 0.145098039 0 0 0 0 0.180392157 0 0 0 0.181838768 0"/></filter><filter id="h" width="108.2%" height="105.1%" x="-4.1%" y="-2.6%" filterUnits="objectBoundingBox"><feOffset in="SourceAlpha" result="shadowOffsetOuter1"/><feGaussianBlur in="shadowOffsetOuter1" result="shadowBlurOuter1" stdDeviation="3"/><feColorMatrix in="shadowBlurOuter1" values="0 0 0 0 0 0 0 0 0 0.145098039 0 0 0 0 0.180392157 0 0 0 0.181838768 0"/></filter><filter id="j" width="108.2%" height="148.1%" x="-4.1%" y="-24.1%" filterUnits="objectBoundingBox"><feOffset in="SourceAlpha" result="shadowOffsetOuter1"/><feGaussianBlur in="shadowOffsetOuter1" result="shadowBlurOuter1" stdDeviation="3"/><feColorMatrix in="shadowBlurOuter1" values="0 0 0 0 0 0 0 0 0 0.145098039 0 0 0 0 0.180392157 0 0 0 0.181838768 0"/></filter><linearGradient id="e" x1="14.8%" x2="76%" y1="-22.4%" y2="119.4%"><stop offset="0%" stop-color="#FAD961"/><stop offset="100%" stop-color="#FF52C1"/></linearGradient><linearGradient id="f" x1="50%" x2="50%" y1="0%" y2="100%"><stop offset="0%" stop-color="#00C7FA"/><stop offset="100%" stop-color="#007DFA"/></linearGradient><linearGradient id="g" x1="29%" x2="90.2%" y1="0%" y2="111.2%"><stop offset="0%" stop-color="#FF52C1"/><stop offset="100%" stop-color="#9952FF"/></linearGradient><path id="d" d="M13.7 0h630.2c7.6 0 13.7 6.1 13.7 13.7v30.1H0V13.7C0 6.1 6.1 0 13.7 0z"/><path id="i" d="M11.7 0h195.8c6.5 0 11.7 5.2 11.7 11.7v327.2c0 6.4-5.2 11.7-11.7 11.7H11.7c-6.5 0-11.7-5.3-11.7-11.7V11.7C0 5.2 5.2 0 11.7 0z"/><path id="k" d="M11.7 0h195.8c6.5 0 11.7 5.2 11.7 11.7v25.7H0V11.7C0 5.2 5.2 0 11.7 0z"/><rect id="b" width="657.6" height="410.8" rx="13.7"/></defs><g fill="none" fill-rule="evenodd"><g transform="translate(7 7)"><use xlink:href="#b" fill="#000" filter="url(#a)"/><use xlink:href="#b" fill="#FFF"/><use xlink:href="#d" fill="#000" filter="url(#c)"/><use xlink:href="#d" fill="#00252E"/><rect width="137" height="16.4" x="49.3" y="13.7" fill="#E1E8EE" rx="3.4"/><g fill="#D8D8D8" transform="translate(591.9 15)"><rect width="21.9" height="2.7" rx="1.4"/><rect width="21.9" height="2.7" y="5.5" rx="1.4"/><rect width="21.9" height="2.7" y="11" rx="1.4"/></g><g transform="translate(49.3 94.5)"><circle cx="32.9" cy="32.9" r="32.9" fill="url(#e)"/><g fill="#E1E8EE" transform="translate(104.1 8.2)"><rect width="78.8" height="11" rx="2.1"/><rect width="274" height="5.5" y="21.9" rx="2.1"/><rect width="251.2" height="5.5" y="32.9" rx="2.1"/><rect width="228.3" height="5.5" y="43.8" rx="2.1"/></g><g fill="#A7B9C8" transform="translate(411 24.6)"><circle cx="8.2" cy="8.2" r="8.2"/><circle cx="52.1" cy="8.2" r="8.2"/><circle cx="30.1" cy="8.2" r="8.2"/><circle cx="74" cy="8.2" r="8.2"/><circle cx="95.9" cy="8.2" r="8.2"/></g></g><g transform="translate(49.3 187.6)"><circle cx="30.8" cy="30.8" r="30.8" fill="url(#f)"/><g fill="#E1E8EE" transform="translate(102 6.2)"><rect width="78.8" height="11" rx="2.1"/><rect width="274" height="5.5" y="21.9" rx="2.1"/><rect width="251.2" height="5.5" y="32.9" rx="2.1"/><rect width="228.3" height="5.5" y="43.8" rx="2.1"/></g><g fill="#A7B9C8" transform="translate(409 22.6)"><circle cx="8.2" cy="8.2" r="8.2"/><circle cx="52.1" cy="8.2" r="8.2"/><circle cx="30.1" cy="8.2" r="8.2"/></g></g><g transform="translate(49.3 285.5)"><circle cx="30.8" cy="30.8" r="30.8" fill="url(#g)"/><g fill="#E1E8EE" transform="translate(102 6.2)"><rect width="78.8" height="11" rx="2.1"/><rect width="274" height="5.5" y="21.9" rx="2.1"/><rect width="251.2" height="5.5" y="32.9" rx="2.1"/><rect width="228.3" height="5.5" y="43.8" rx="2.1"/></g><g fill="#A7B9C8" transform="translate(409 22.6)"><circle cx="8.2" cy="8.2" r="8.2"/><circle cx="52.1" cy="8.2" r="8.2"/><circle cx="30.1" cy="8.2" r="8.2"/><circle cx="74" cy="8.2" r="8.2"/></g></g></g><g transform="translate(483.8 149.4)"><use xlink:href="#i" fill="#000" filter="url(#h)"/><use xlink:href="#i" fill="#FFF"/></g><g transform="translate(483.8 149.4)"><use xlink:href="#k" fill="#000" filter="url(#j)"/><use xlink:href="#k" fill="#00252E"/></g><g transform="translate(505.8 162.3)"><rect width="71.2" height="14" fill="#E1E8EE" rx="2.9"/><g fill="#D8D8D8" transform="translate(155.1 1.2)"><rect width="18.7" height="2.3" rx="1.2"/><rect width="18.7" height="2.3" y="4.7" rx="1.2"/><rect width="18.7" height="2.3" y="9.3" rx="1.2"/></g></g><g transform="translate(505.7 223.4)"><circle cx="10.3" cy="10.3" r="10.3" fill="url(#e)"/><g fill="#E1E8EE" transform="translate(31.5 2)"><rect width="39.4" height="3.7" rx=".6"/><rect width="137" height="1.8" y="7.3" rx=".6"/><rect width="125.6" height="1.8" y="11" rx=".6"/><rect width="114.2" height="1.8" y="14.6" rx=".6"/></g></g><g transform="translate(505.7 317.9)"><circle cx="10.3" cy="10.3" r="10.3" fill="url(#e)"/><g fill="#E1E8EE" transform="translate(31.5 2)"><rect width="39.4" height="3.7" rx=".6"/><rect width="137" height="1.8" y="7.3" rx=".6"/><rect width="125.6" height="1.8" y="11" rx=".6"/><rect width="114.2" height="1.8" y="14.6" rx=".6"/></g></g><g transform="translate(505.7 254.9)"><g fill="#E1E8EE" transform="translate(31.5 2)"><rect width="39.4" height="3.7" rx=".6"/><rect width="137" height="1.8" y="7.3" rx=".6"/><rect width="125.6" height="1.8" y="11" rx=".6"/><rect width="114.2" height="1.8" y="14.6" rx=".6"/></g><circle cx="10.3" cy="10.3" r="10.3" fill="url(#f)"/></g><g transform="translate(505.7 349.4)"><g fill="#E1E8EE" transform="translate(31.5 2)"><rect width="39.4" height="3.7" rx=".6"/><rect width="137" height="1.8" y="7.3" rx=".6"/><rect width="125.6" height="1.8" y="11" rx=".6"/><rect width="114.2" height="1.8" y="14.6" rx=".6"/></g><circle cx="10.3" cy="10.3" r="10.3" fill="url(#f)"/></g><g transform="translate(505.7 286.4)"><g fill="#E1E8EE" transform="translate(31.5 2)"><rect width="39.4" height="3.7" rx=".6"/><rect width="137" height="1.8" y="7.3" rx=".6"/><rect width="125.6" height="1.8" y="11" rx=".6"/><rect width="114.2" height="1.8" y="14.6" rx=".6"/></g><circle cx="10.3" cy="10.3" r="10.3" fill="url(#g)"/></g><g transform="translate(505.7 380.9)"><g fill="#E1E8EE" transform="translate(31.5 2)"><rect width="39.4" height="3.7" rx=".6"/><rect width="137" height="1.8" y="7.3" rx=".6"/><rect width="125.6" height="1.8" y="11" rx=".6"/><rect width="114.2" height="1.8" y="14.6" rx=".6"/></g><circle cx="10.3" cy="10.3" r="10.3" fill="url(#g)"/></g><g transform="translate(505.7 412.4)"><circle cx="10.3" cy="10.3" r="10.3" fill="url(#e)"/><g fill="#E1E8EE" transform="translate(31.5 2)"><rect width="39.4" height="3.7" rx=".6"/><rect width="137" height="1.8" y="7.3" rx=".6"/><rect width="125.6" height="1.8" y="11" rx=".6"/><rect width="114.2" height="1.8" y="14.6" rx=".6"/></g></g><g transform="translate(505.7 443.9)"><g fill="#E1E8EE" transform="translate(31.5 2)"><rect width="39.4" height="3.7" rx=".6"/><rect width="137" height="1.8" y="7.3" rx=".6"/><rect width="125.6" height="1.8" y="11" rx=".6"/><rect width="114.2" height="1.8" y="14.6" rx=".6"/></g><circle cx="10.3" cy="10.3" r="10.3" fill="url(#f)"/></g></g></svg>