<svg xmlns="http://www.w3.org/2000/svg" viewBox="0 0 375 657"><defs><linearGradient id="a" x1="-19.9%" x2="117.6%" y1="-6.8%" y2="100%"><stop offset="0%" stop-color="#FFF" stop-opacity="0"/><stop offset="100%" stop-color="#C9F0FF"/></linearGradient><linearGradient id="b" x1="119.9%" x2="0%" y1="0%" y2="84.6%"><stop offset="0%" stop-color="#FFF" stop-opacity="0"/><stop offset="100%" stop-color="#C9F0FF"/></linearGradient><linearGradient id="c" x1="137%" x2="50%" y1="129.1%" y2="50%"><stop offset="0%" stop-color="#FFF" stop-opacity="0"/><stop offset="100%" stop-color="#C9F0FF"/></linearGradient><linearGradient id="d" x1="-97%" x2="65.9%" y1="148.2%" y2="50%"><stop offset="0%" stop-color="#FFF" stop-opacity="0"/><stop offset="100%" stop-color="#C9F0FF"/></linearGradient><linearGradient id="e" x1="-160.8%" x2="107%" y1="-224.5%" y2="70.7%"><stop offset="0%" stop-color="#FFF" stop-opacity="0"/><stop offset="100%" stop-color="#DEF5FE"/></linearGradient></defs><g fill="none" fill-rule="evenodd" transform="translate(-40 -3)"><path fill="url(#a)" d="M0 324c14-54 44-75 88-62 66 20 66 19 111-14 14-10 5-56-15-58-20-1-5-35 30-41 35-7-9-53-36-67-28-14 8-51 11-65 4-23-59-23-189 0v307z"/><path fill="url(#b)" d="M415 538c-26-1-45-13-58-36-19-35-18-111-58-107-40 5-82-12-67-60s50-42 58-120c9-78-60 16-72-35-4-21 7-23-10-46-5-7-8-18-7-23l7-108c6-3 15-2 28-2l179 2v535z"/><rect width="16" height="16" x="75" y="641" fill="url(#c)" rx="1.3" transform="rotate(45 83 649)"/><path stroke="url(#d)" stroke-width="4.5" d="m97 458 8 17a2 2 0 0 1-2 3H87a2 2 0 0 1-2-3l8-17a2 2 0 0 1 4 0z" opacity=".5" transform="rotate(30 95 466)"/><rect width="13" height="13" x="259" y="443" fill="url(#e)" rx="1" transform="rotate(45 265 449)"/></g></svg>