<svg xmlns="http://www.w3.org/2000/svg" viewBox="0 0 1440 718"><defs><linearGradient id="a" x1="137%" x2="50%" y1="129.1%" y2="50%"><stop offset="0%" stop-color="#FFF" stop-opacity="0"/><stop offset="100%" stop-color="#C9F0FF"/></linearGradient><linearGradient id="b" x1="-160.8%" x2="107%" y1="-224.5%" y2="70.7%"><stop offset="0%" stop-color="#FFF" stop-opacity="0"/><stop offset="100%" stop-color="#DEF5FE"/></linearGradient><linearGradient id="c" x1="-347.1%" x2="65.9%" y1="338.4%" y2="50%"><stop offset="0%" stop-color="#FFF" stop-opacity="0"/><stop offset="100%" stop-color="#C9F0FF"/></linearGradient><linearGradient id="d" x1="-97%" x2="65.9%" y1="148.2%" y2="50%"><stop offset="0%" stop-color="#FFF" stop-opacity="0"/><stop offset="100%" stop-color="#C9F0FF"/></linearGradient><linearGradient id="e" x1="-19.9%" x2="117.6%" y1="-6.8%" y2="100%"><stop offset="0%" stop-color="#FFF" stop-opacity="0"/><stop offset="100%" stop-color="#C9F0FF"/></linearGradient><linearGradient id="f" x1="119.9%" x2="0%" y1="0%" y2="84.6%"><stop offset="0%" stop-color="#FFF" stop-opacity="0"/><stop offset="100%" stop-color="#C9F0FF"/></linearGradient><linearGradient id="g" x1="-89%" x2="137.1%" y1="77.6%" y2="17.8%"><stop offset="0%" stop-color="#FFF" stop-opacity="0"/><stop offset="100%" stop-color="#C9F0FF"/></linearGradient></defs><g fill="none" fill-rule="evenodd" transform="translate(0 -20)"><rect width="38" height="38" x="956" y="575" fill="url(#a)" rx="3" transform="rotate(45 975 594)"/><rect width="17" height="17" x="508" y="361" fill="url(#b)" rx="1" transform="rotate(45 516 370)"/><path stroke="url(#c)" stroke-width="10" d="m1332 291 12 25a2 2 0 0 1-2 3h-24a2 2 0 0 1-2-3l12-25a2 2 0 0 1 4 0z" opacity=".5" transform="rotate(30 1330 303)"/><path stroke="url(#d)" stroke-width="10" d="m845 173 18 36a5 5 0 0 1-4 8h-37a5 5 0 0 1-5-8l19-36a5 5 0 0 1 9 0z" opacity=".5" transform="rotate(30 840 190)"/><path fill="url(#e)" d="M0 428c39-93 96-126 171-100 112 39 152 92 212 0 16-24 10-75-29-77s-9-46 58-55c68-8-18-70-69-87-54-19 15-68 20-86C372-8 251-8 0 23v405z"/><path fill="url(#f)" d="M1440 738c-87-1-152-21-194-60-62-59-61-187-194-180s-275-21-225-102c51-80 169-70 197-201s-203 27-241-60c-14-34 21-38-34-77-18-12-27-31-23-38 2-3 8 2 14 0 21-5 64 0 108 0h592v718z"/><path fill="url(#g)" d="M520 612c9-2 12 8 28 8s30-9 49-1c20 8 36 32 16 27-12-2-27-11-47 5s-32-14-48-10c-15 5-6-27 2-29z"/></g></svg>