<svg xmlns="http://www.w3.org/2000/svg" viewBox="0 0 46 39"><path fill="#FF52C1" d="M28.7.4a91 91 0 0 0-24 4c-1 .2-2 1-2.5 1.7-.5.8-.7 1.6-.9 2.5C.5 13 .6 17.3.8 22c0 1.2.2 2.5.7 3.3.6.8 1.5 1.3 2.6 1.4l4.2.6L8 36c0 .6.3 1.2.7 1.6.4.2.8.4 1.2.4.9 0 2-.3 2.4-1.3 2.2-4.2 3.6-6 6.3-8.9 7.2.2 13.4-.2 20.5-.7 2.5 0 4.2-2.1 4.7-3.7 1.3-4.3 1.5-9.5 1.7-14.8 0-2-.7-4.1-2-5.2a9.3 9.3 0 0 0-4-1.7A52 52 0 0 0 28.7.4Zm10.2 3.3c1.4.4 2.6.8 3.4 1.4 1.2 1.3 1.2 2.2 1.2 3.7a56 56 0 0 1-1.6 13.8c-.5 1.4-1.4 2.4-3 2.6a193.6 193.6 0 0 1-21.1.8 34 34 0 0 0-7.3 10h-.4l.3-9.5c0-.5-.4-1-1-1l-5-.7c-.7-.1-1-.3-1.2-.6-.3-.8-.3-1.3-.4-2.1-.1-4.8-.2-9 .5-13.1.1-.6.3-1.3.6-1.8.4-.6 1-.7 1.6-.9a89 89 0 0 1 23-3.8c3.7.1 7.5.5 10.4 1.2Zm-27.4 8.1a3.5 3.5 0 0 0-.2 4.3 3 3 0 0 0 2 1.3c1 0 1.8-.4 2.5-.9a3.6 3.6 0 0 0 .5-4.7 2.9 2.9 0 0 0-2.2-1.2c-1.2 0-2 .5-2.6 1.2Zm11.8-1c-1 0-2 .8-2.5 1.6-.6.9-1 2-.5 3.2 1 2.2 4.3 2.2 5.6 0 .6-1 .5-2.3 0-3.1a2.8 2.8 0 0 0-2.1-1.7h-.5Zm9.6.2h-1a3.2 3.2 0 0 0-2.2 3.5c0 .9.5 1.7 1.2 2.3.7.6 1.7.9 2.9.6 1.2-.2 2-1.2 2.3-2.2.2-1 .2-2-.4-2.8a3.5 3.5 0 0 0-2.8-1.4Zm-19 1.6c.3 0 .5 0 .7.4.5.6.3 1.6-.1 2-.5.4-.7.4-1 .4l-.5-.5c-.3-.4-.4-1.2 0-1.8.2-.3.7-.5 1-.5Zm9.6.2.6.6c.2.4.3.8 0 1.1-.5 1-1.7.7-2 .3 0-.2 0-.8.4-1.3.3-.5.8-.7 1-.7Zm10.5.8s.2.6.1 1c-.1.5-.3.8-.8.9-.6 0-.9 0-1.2-.3-.2-.2-.4-.5-.4-.9-.1-.9.2-1.1.8-1.2.6-.2 1.3 0 1.5.5Z"/></svg>