<svg width="0" height="0" class="hidden"><symbol xmlns="http://www.w3.org/2000/svg" viewBox="0 0 13 18" id="location"><path fill="#FFF" fill-rule="evenodd" d="M6.2 0A6.2 6.2 0 0 0 0 6.3C0 11 6.2 18 6.2 18s6.2-7 6.2-11.7C12.4 2.8 9.6 0 6.2 0zm0 8.6C4.9 8.6 4 7.6 4 6.3s1-2.2 2.2-2.2c1.2 0 2.2 1 2.2 2.2s-1 2.3-2.2 2.3z"></path></symbol><symbol xmlns="http://www.w3.org/2000/svg" viewBox="0 0 20 16" id="email"><path d="M18 0H2C.9 0 0 .9 0 2v12c0 1.1.9 2 2 2h16c1.1 0 2-.9 2-2V2c0-1.1-.9-2-2-2zm0 14h-2V5.2L10 9 4 5.2V14H2V2h1.2L10 6.2 16.8 2H18v12z" fill="#FFF" fill-rule="evenodd"></path></symbol><symbol xmlns="http://www.w3.org/2000/svg" viewBox="0 0 18 18" id="phone"><path d="M17 12.5c-1.2 0-2.4-.2-3.6-.6-.3-.1-.7 0-1 .2l-2.2 2.2c-2.8-1.4-5.1-3.8-6.6-6.6l2.2-2.2c.3-.3.4-.7.2-1-.3-1.1-.5-2.3-.5-3.5 0-.6-.4-1-1-1H1C.4 0 0 .4 0 1c0 9.4 7.6 17 17 17 .6 0 1-.4 1-1v-3.5c0-.6-.4-1-1-1zM16 9h2c0-5-4-9-9-9v2c3.9 0 7 3.1 7 7zm-4 0h2c0-2.8-2.2-5-5-5v2c1.7 0 3 1.3 3 3z" fill="#FFF" fill-rule="evenodd"></path></symbol></svg>