<svg width="0" height="0" class="hidden"><symbol xmlns="http://www.w3.org/2000/svg" viewBox="0 0 20 16" id="email"><path fill="#FFF" fill-rule="evenodd" d="M18 0H2a2 2 0 0 0-2 2v12c0 1.1.9 2 2 2h16a2 2 0 0 0 2-2V2a2 2 0 0 0-2-2zm0 14h-2V5.2L10 9 4 5.2V14H2V2h1.2L10 6.2 16.8 2H18v12z"></path></symbol><symbol xmlns="http://www.w3.org/2000/svg" fill="none" viewBox="0 0 18 33" id="facebook"><path fill="#fff" d="m16.46 18.4.9-5.56h-5.34V8.95c0-1.56.56-2.78 3-2.78h2.56v-5.1c-1.45-.23-3-.45-4.45-.45-4.55 0-7.78 2.77-7.78 7.77v4.45h-5v5.55h5v14.12a16.96 16.96 0 0 0 6.67 0V18.4h4.44Z"></path></symbol><symbol xmlns="http://www.w3.org/2000/svg" fill="none" viewBox="0 0 48 49" id="instagram"><path fill="#fff" d="M24 .7c-6.5 0-7.3 0-9.9.2A17 17 0 0 0 8.3 2c-1.6.6-3 1.6-4.3 2.8A11.8 11.8 0 0 0 1.3 9c-.6 1.5-1 3.3-1.2 5.8l-.1 10 .1 9.8c.2 2.6.6 4.3 1.2 5.9a11.8 11.8 0 0 0 7 7c1.5.6 3.3 1 5.8 1a168.4 168.4 0 0 0 19.8 0A13.3 13.3 0 0 0 44 44.7c1.2-1.2 2.1-2.6 2.7-4.2.6-1.6 1-3.3 1.1-5.9.2-2.5.2-3.3.2-9.9 0-6.5 0-7.3-.2-9.9 0-2.5-.5-4.3-1-5.8-.7-1.6-1.6-3-2.8-4.2A11.8 11.8 0 0 0 39.7 2 15 15 0 0 0 34 1C30.6.7 27.3.7 24 .7Zm0 4.4 9.7.1c2.3.1 3.6.5 4.4.8a8 8 0 0 1 4.6 4.6c.3.8.7 2.1.8 4.4.1 2.6.2 3.3.2 9.7 0 6.4 0 7.2-.2 9.7 0 2.4-.5 3.6-.8 4.5-.4 1-1 2-1.8 2.7-.8.8-1.7 1.5-2.8 1.8-.8.4-2 .8-4.4.9l-9.7.1-9.7-.1c-2.3-.1-3.6-.5-4.5-.9-1-.3-2-1-2.7-1.8A7.4 7.4 0 0 1 5.3 39c-.3-.9-.7-2.1-.8-4.5-.2-3.2-.2-6.4-.2-9.7 0-6.4 0-7.1.2-9.7 0-2.3.5-3.6.8-4.4.4-1 1-2 1.8-2.8A7 7 0 0 1 9.8 6a15 15 0 0 1 4.5-.8l9.7-.1Zm0 7.3a12.3 12.3 0 1 0 0 24.7 12.3 12.3 0 0 0 0-24.7Zm0 20.3a8 8 0 1 1 0-16 8 8 0 0 1 0 16ZM39.7 12a2.9 2.9 0 1 0-5.8 0 2.9 2.9 0 0 0 5.8 0Z"></path></symbol><symbol xmlns="http://www.w3.org/2000/svg" viewBox="0 0 13 18" id="location"><path fill="#FFF" fill-rule="evenodd" d="M6.2 0A6.2 6.2 0 0 0 0 6.3C0 11 6.2 18 6.2 18s6.2-7 6.2-11.7C12.4 2.8 9.6 0 6.2 0zm0 8.6C4.9 8.6 4 7.6 4 6.3s1-2.2 2.2-2.2c1.2 0 2.2 1 2.2 2.2s-1 2.3-2.2 2.3z"></path></symbol><symbol xmlns="http://www.w3.org/2000/svg" viewBox="0 0 18 18" id="phone"><path fill="#FFF" fill-rule="evenodd" d="M17 12.5c-1.2 0-2.4-.2-3.6-.6-.3-.1-.7 0-1 .2l-2.2 2.2a15.6 15.6 0 0 1-6.6-6.6l2.2-2.2c.3-.3.4-.7.2-1-.3-1.1-.5-2.3-.5-3.5 0-.6-.4-1-1-1H1C.4 0 0 .4 0 1a17 17 0 0 0 17 17c.6 0 1-.4 1-1v-3.5c0-.6-.4-1-1-1zM16 9h2c0-5-4-9-9-9v2a7 7 0 0 1 7 7zm-4 0h2a5 5 0 0 0-5-5v2a3 3 0 0 1 3 3z"></path></symbol><symbol xmlns="http://www.w3.org/2000/svg" fill="none" viewBox="0 0 24 19" id="twitter"><path fill="#fff" d="M23.19 2.45c-.84.37-1.74.62-2.68.73A4.67 4.67 0 0 0 22.56.6a9 9 0 0 1-2.96 1.13 4.66 4.66 0 0 0-7.94 4.25c-3.87-.2-7.3-2.05-9.6-4.86A4.66 4.66 0 0 0 3.5 7.34a4.65 4.65 0 0 1-2.1-.59v.06c0 2.26 1.6 4.14 3.73 4.57a4.7 4.7 0 0 1-2.1.08 4.66 4.66 0 0 0 4.35 3.23 9.35 9.35 0 0 1-6.9 1.93 13.17 13.17 0 0 0 7.14 2.1c8.57 0 13.25-7.1 13.25-13.26l-.01-.6a9.47 9.47 0 0 0 2.32-2.4v-.01Z"></path></symbol></svg>
