<svg xmlns="http://www.w3.org/2000/svg" viewBox="0 0 240 39"><g fill="none"><path fill="#FF52C1" d="M27.97.88c-7.73 0-15.79 1.74-23.92 4a4.03 4.03 0 0 0-2.58 1.7A6.55 6.55 0 0 0 .65 9c-.79 4.43-.7 8.78-.53 13.6.04 1.1.2 2.4.72 3.2.54.8 1.46 1.31 2.56 1.48a95.99 95.99 0 0 0 4.23.52l-.31 8.7c-.05.7.29 1.27.7 1.6.38.29.8.41 1.23.44.86.07 1.87-.3 2.37-1.25 2.2-4.23 3.57-6.1 6.32-8.9 7.16.18 13.4-.22 20.48-.74 2.5-.07 4.22-2.11 4.67-3.75 1.36-4.23 1.57-9.45 1.72-14.73.06-2.1-.67-4.15-1.95-5.24-1.23-.99-2.7-1.35-4.06-1.71A52.09 52.09 0 0 0 27.97.88zm10.29 3.3c1.35.38 2.55.73 3.3 1.35 1.27 1.33 1.22 2.23 1.2 3.67-.13 5.12-.38 10.1-1.54 13.86-.5 1.4-1.36 2.4-3 2.56-7.21.53-13.46.94-20.71.74a1.03 1.03 0 0 0-.76.3c-3.05 3.07-4.6 5.2-6.92 9.67a.39.39 0 0 1-.32.18c-.1 0-.13-.08-.14-.15l.31-9.43c.02-.51-.4-1-.9-1.05a95.48 95.48 0 0 1-5.06-.62c-.73-.11-1-.31-1.2-.6-.34-.83-.33-1.34-.36-2.14-.16-4.77-.24-8.94.49-13.1.07-.6.3-1.24.54-1.76.4-.63 1.02-.73 1.65-.9 7.95-2.2 15.74-3.84 23.06-3.84 3.6.13 7.37.49 10.36 1.27zm-27.48 8.1a3.53 3.53 0 0 0-.14 4.29 2.93 2.93 0 0 0 1.97 1.24c1.1.1 1.78-.35 2.53-.86a3.56 3.56 0 0 0 .46-4.7A2.86 2.86 0 0 0 13.38 11a3.31 3.31 0 0 0-2.6 1.28zm11.85-1.07c-1.09.03-1.97.79-2.51 1.6-.62.94-.98 2.1-.48 3.25.96 2.2 4.28 2.18 5.6-.06.61-1.04.46-2.2 0-3.06-.45-.85-1.13-1.54-2.13-1.7a2.5 2.5 0 0 0-.48-.03zm9.63.2a3.19 3.19 0 0 0-3.28 3.55c.09.87.49 1.72 1.21 2.31.72.59 1.77.85 2.88.62a3.1 3.1 0 0 0 2.32-2.27c.27-1 .2-2-.41-2.82a3.47 3.47 0 0 0-2.72-1.39zm-18.97 1.63c.25 0 .44.08.64.36.45.65.32 1.62-.13 2-.44.4-.72.43-.92.4-.2-.02-.4-.16-.57-.4-.34-.49-.44-1.26 0-1.82.24-.31.68-.51.98-.54zm9.49.22c.03 0 .46.25.66.64.2.38.25.74.05 1.06-.57.98-1.8.71-1.99.29-.07-.16-.01-.81.32-1.32.34-.51.76-.7.96-.67zm10.56.75c.06.08.21.64.1 1.08-.12.44-.31.72-.78.81-.6.13-.94 0-1.2-.2a1.43 1.43 0 0 1-.46-.93c-.09-.92.24-1.13.77-1.27.6-.15 1.3.11 1.57.5z"/><path fill="#00252E" d="M57.61 5c.02-.26.11-.5.29-.7a.88.88 0 0 1 .7-.31h6.82c.23 0 .47.1.72.28a.88.88 0 0 1 .36.73v10.89h11.42V4.99a1 1 0 0 1 .3-.7c.18-.2.43-.3.74-.3h6.73c.3 0 .58.07.8.22.24.16.35.4.35.74V37.1c0 .34-.1.59-.3.76-.2.17-.46.25-.78.25h-6.8c-.3 0-.56-.08-.75-.25-.19-.17-.29-.42-.29-.76V24.05H66.5V37.1c0 .32-.1.57-.3.75-.21.17-.5.26-.85.26H58.6c-.65 0-.97-.3-.99-.9V5zm62.88 32.72c-.2.17-.41.28-.64.32a3.12 3.12 0 0 1-.63.07h-3.47c-.27 0-.51-.05-.71-.15a1.4 1.4 0 0 1-.5-.4 2.38 2.38 0 0 1-.35-.57 4.88 4.88 0 0 1-.23-.67l-.71-2.94c-.23.47-.57 1.01-1 1.62a8.5 8.5 0 0 1-1.67 1.7 8.91 8.91 0 0 1-5.63 1.87c-1.75 0-3.33-.34-4.76-1.01a10.9 10.9 0 0 1-3.64-2.76 12.6 12.6 0 0 1-2.33-4.08 14.76 14.76 0 0 1-.83-4.97V10.7c0-.59.13-1.03.38-1.33.25-.3.66-.44 1.2-.44h5.32c.65 0 1.1.1 1.35.33.25.22.37.65.37 1.3v14.96c0 .66.15 1.28.45 1.87a5.46 5.46 0 0 0 2.85 2.63 4.24 4.24 0 0 0 3.6 0 6.36 6.36 0 0 0 1.64-1.04c.5-.44.9-.95 1.23-1.54.32-.6.48-1.22.48-1.88V10.63c0-.26.05-.52.15-.79.1-.26.25-.46.45-.6a2.12 2.12 0 0 1 1.17-.32h5.2c.65 0 1.12.17 1.42.49.29.32.43.75.43 1.28v25.72c0 .3-.06.56-.2.8s-.3.44-.53.58l.13-.07zm26.68-3.17a85 85 0 0 1-1.37 1.33c-.5.48-1.05.92-1.64 1.34a9.3 9.3 0 0 1-1.93 1.02 6.1 6.1 0 0 1-2.23.4c-2.09 0-4-.39-5.76-1.17a13.78 13.78 0 0 1-4.53-3.2 14.76 14.76 0 0 1-2.96-4.8 16.25 16.25 0 0 1-1.07-5.93c0-2.13.36-4.1 1.07-5.94a14.8 14.8 0 0 1 2.96-4.78 13.63 13.63 0 0 1 4.53-3.2A14.1 14.1 0 0 1 140 8.48c.84 0 1.6.12 2.3.36a8.51 8.51 0 0 1 1.91.95c.58.38 1.1.81 1.59 1.3l1.37 1.4V1.99c0-.49.15-.9.44-1.24.3-.33.75-.5 1.35-.5h5.17c.2 0 .4.04.63.12a2.09 2.09 0 0 1 1.06.91c.11.22.17.45.17.71v34.36c0 1.18-.62 1.77-1.86 1.77h-4.5c-.31 0-.55-.04-.72-.11a1.13 1.13 0 0 1-.42-.34 2.32 2.32 0 0 1-.31-.55 17.13 17.13 0 0 0-.35-.77l-.66-1.8zm-13.22-11a8.39 8.39 0 0 0 .47 2.83c.32.88.77 1.64 1.35 2.29a6.38 6.38 0 0 0 2.1 1.52 7.28 7.28 0 0 0 5.5.04 7.06 7.06 0 0 0 2.26-1.46 7.26 7.26 0 0 0 1.55-2.2c.39-.84.6-1.74.65-2.7v-.33a7.26 7.26 0 0 0-.55-2.8 7.43 7.43 0 0 0-1.53-2.35 7.24 7.24 0 0 0-2.3-1.6 6.98 6.98 0 0 0-2.86-.58 6.25 6.25 0 0 0-4.82 2.18 7.24 7.24 0 0 0-1.35 2.35 8.35 8.35 0 0 0-.47 2.8zm48.72 11c-.41.41-.87.86-1.37 1.33-.5.48-1.04.92-1.64 1.34a9.3 9.3 0 0 1-1.93 1.02 6.1 6.1 0 0 1-2.23.4c-2.08 0-4-.39-5.75-1.17a13.78 13.78 0 0 1-4.53-3.2 14.78 14.78 0 0 1-2.97-4.8 16.27 16.27 0 0 1-1.07-5.93c0-2.13.36-4.1 1.07-5.94s1.7-3.42 2.97-4.78a13.63 13.63 0 0 1 4.53-3.2 14.1 14.1 0 0 1 5.75-1.15c.84 0 1.61.12 2.31.36a8.51 8.51 0 0 1 1.9.95 10 10 0 0 1 1.6 1.3l1.36 1.4V1.99c0-.49.15-.9.45-1.24.3-.33.75-.5 1.34-.5h5.17a1.94 1.94 0 0 1 1.69 1.03c.12.22.18.45.18.71v34.36c0 1.18-.62 1.77-1.87 1.77h-4.5c-.3 0-.54-.04-.71-.11a1.13 1.13 0 0 1-.43-.34 2.32 2.32 0 0 1-.3-.55 17.13 17.13 0 0 0-.35-.77l-.67-1.8zm-13.21-11a8.39 8.39 0 0 0 .47 2.83c.31.88.76 1.64 1.34 2.29a6.38 6.38 0 0 0 2.1 1.52 7.28 7.28 0 0 0 5.5.04 7.06 7.06 0 0 0 2.26-1.46 7.26 7.26 0 0 0 1.55-2.2c.4-.84.61-1.74.66-2.7v-.33a7.26 7.26 0 0 0-.55-2.8 7.43 7.43 0 0 0-1.53-2.35 7.24 7.24 0 0 0-2.3-1.6 6.98 6.98 0 0 0-2.86-.58 6.24 6.24 0 0 0-4.83 2.18 7.24 7.24 0 0 0-1.34 2.35 8.35 8.35 0 0 0-.47 2.8zM197.6 2c0-.5.12-.9.37-1.24.24-.34.66-.5 1.26-.5h5.63c.16 0 .32.03.48.12a1.7 1.7 0 0 1 .48.35c.14.16.26.34.36.56.1.21.15.45.15.7v34.34c0 .58-.16 1.02-.5 1.32-.32.3-.75.45-1.27.45h-5.33c-.6 0-1.02-.15-1.26-.45-.25-.3-.37-.74-.37-1.32V2.01zm38.7 32.6a15.31 15.31 0 0 1-4.55 2.91 13.87 13.87 0 0 1-5.36 1.05c-2.1 0-4.08-.38-5.95-1.15a15.5 15.5 0 0 1-4.91-3.18 15.27 15.27 0 0 1-3.36-4.8 15.45 15.45 0 0 1-.75-9.92 15.45 15.45 0 0 1 1.4-3.54 15.05 15.05 0 0 1 2.21-3.04 13.96 13.96 0 0 1 2.9-2.38 14.33 14.33 0 0 1 3.5-1.54 14.08 14.08 0 0 1 3.98-.55c1.27 0 2.5.16 3.7.5a14.42 14.42 0 0 1 6.25 3.63 14.9 14.9 0 0 1 2.25 2.82 13.58 13.58 0 0 1 1.46 3.26c.34 1.16.52 2.35.52 3.57 0 .8-.02 1.45-.04 1.96-.02.5-.14.9-.36 1.2-.21.3-.57.51-1.06.62-.5.12-1.23.18-2.2.18H219.4c.15.98.46 1.8.93 2.46a5.84 5.84 0 0 0 1.62 1.57c.6.4 1.26.67 1.95.84a8.24 8.24 0 0 0 1.95.25c.56 0 1.12-.06 1.7-.17a12.18 12.18 0 0 0 1.7-.46 9.56 9.56 0 0 0 1.49-.67c.45-.25.81-.51 1.09-.79.24-.2.45-.35.63-.45.18-.1.36-.15.56-.15.2 0 .4.07.61.21a4.8 4.8 0 0 1 .7.6l2.44 2.75c.17.2.27.38.32.54.05.17.07.33.07.5 0 .3-.09.57-.25.8a2.89 2.89 0 0 1-.6.58zm-11.05-19.14c-.6 0-1.18.12-1.74.36a6.55 6.55 0 0 0-1.57.95c-.5.4-.93.85-1.32 1.36a8.31 8.31 0 0 0-.96 1.54h11.74a13.54 13.54 0 0 0-1.04-1.65 7.08 7.08 0 0 0-1.29-1.34 5.56 5.56 0 0 0-1.65-.9 6.63 6.63 0 0 0-2.17-.32z"/></g></svg>