<svg xmlns="http://www.w3.org/2000/svg" xmlns:xlink="http://www.w3.org/1999/xlink" viewBox="0 0 1035 739"><defs><filter id="a" width="103.1%" height="105%" x="-1.6%" y="-2.5%" filterUnits="objectBoundingBox"><feOffset in="SourceAlpha" result="shadowOffsetOuter1"/><feGaussianBlur in="shadowOffsetOuter1" result="shadowBlurOuter1" stdDeviation="5"/><feColorMatrix in="shadowBlurOuter1" values="0 0 0 0 0 0 0 0 0 0.145098039 0 0 0 0 0.180392157 0 0 0 0.181838768 0"/></filter><filter id="c" width="103.1%" height="146.9%" x="-1.6%" y="-23.4%" filterUnits="objectBoundingBox"><feOffset in="SourceAlpha" result="shadowOffsetOuter1"/><feGaussianBlur in="shadowOffsetOuter1" result="shadowBlurOuter1" stdDeviation="5"/><feColorMatrix in="shadowBlurOuter1" values="0 0 0 0 0 0 0 0 0 0.145098039 0 0 0 0 0.180392157 0 0 0 0.181838768 0"/></filter><filter id="h" width="108.4%" height="105.3%" x="-4.2%" y="-2.6%" filterUnits="objectBoundingBox"><feOffset in="SourceAlpha" result="shadowOffsetOuter1"/><feGaussianBlur in="shadowOffsetOuter1" result="shadowBlurOuter1" stdDeviation="4.5"/><feColorMatrix in="shadowBlurOuter1" values="0 0 0 0 0 0 0 0 0 0.145098039 0 0 0 0 0.180392157 0 0 0 0.181838768 0"/></filter><filter id="j" width="108.4%" height="149.4%" x="-4.2%" y="-24.7%" filterUnits="objectBoundingBox"><feOffset in="SourceAlpha" result="shadowOffsetOuter1"/><feGaussianBlur in="shadowOffsetOuter1" result="shadowBlurOuter1" stdDeviation="4.5"/><feColorMatrix in="shadowBlurOuter1" values="0 0 0 0 0 0 0 0 0 0.145098039 0 0 0 0 0.180392157 0 0 0 0.181838768 0"/></filter><linearGradient id="e" x1="14.8%" x2="76%" y1="-22.4%" y2="119.4%"><stop offset="0%" stop-color="#FAD961"/><stop offset="100%" stop-color="#FF52C1"/></linearGradient><linearGradient id="f" x1="50%" x2="50%" y1="0%" y2="100%"><stop offset="0%" stop-color="#00C7FA"/><stop offset="100%" stop-color="#007DFA"/></linearGradient><linearGradient id="g" x1="29%" x2="90.2%" y1="0%" y2="111.2%"><stop offset="0%" stop-color="#FF52C1"/><stop offset="100%" stop-color="#9952FF"/></linearGradient><rect id="b" width="960" height="600" rx="20"/><rect id="i" width="320" height="512" rx="17.1"/><path id="d" d="M20 0h920c11 0 20 9 20 20v44H0V20C0 9 9 0 20 0z"/><path id="k" d="M17 0h286a17 17 0 0 1 17 17v37.6H0V17.1A17 17 0 0 1 17 0z"/></defs><g fill="none" fill-rule="evenodd"><g transform="translate(10 10)"><use xlink:href="#b" fill="#000" filter="url(#a)"/><use xlink:href="#b" fill="#FFF"/><use xlink:href="#d" fill="#000" filter="url(#c)"/><use xlink:href="#d" fill="#00252E"/><rect width="200" height="24" x="72" y="20" fill="#E1E8EE" rx="5"/><g fill="#D8D8D8" transform="translate(864 22)"><rect width="32" height="4" rx="2"/><rect width="32" height="4" y="8" rx="2"/><rect width="32" height="4" y="16" rx="2"/></g><g transform="translate(72 138)"><circle cx="48" cy="48" r="48" fill="url(#e)"/><g fill="#E1E8EE" transform="translate(152 12)"><rect width="115" height="16" rx="3"/><rect width="400" height="8" y="32" rx="3"/><rect width="366.7" height="8" y="48" rx="3"/><rect width="333.3" height="8" y="64" rx="3"/></g><g fill="#A7B9C8" transform="translate(600 36)"><circle cx="12" cy="12" r="12"/><circle cx="76" cy="12" r="12"/><circle cx="44" cy="12" r="12"/><circle cx="108" cy="12" r="12"/><circle cx="140" cy="12" r="12"/></g></g><g transform="translate(72 274)"><circle cx="45" cy="45" r="45" fill="url(#f)"/><g fill="#E1E8EE" transform="translate(149 9)"><rect width="115" height="16" rx="3"/><rect width="400" height="8" y="32" rx="3"/><rect width="366.7" height="8" y="48" rx="3"/><rect width="333.3" height="8" y="64" rx="3"/></g><g fill="#A7B9C8" transform="translate(597 33)"><circle cx="12" cy="12" r="12"/><circle cx="76" cy="12" r="12"/><circle cx="44" cy="12" r="12"/></g></g><g transform="translate(72 417)"><circle cx="45" cy="45" r="45" fill="url(#g)"/><g fill="#E1E8EE" transform="translate(149 9)"><rect width="115" height="16" rx="3"/><rect width="400" height="8" y="32" rx="3"/><rect width="366.7" height="8" y="48" rx="3"/><rect width="333.3" height="8" y="64" rx="3"/></g><g fill="#A7B9C8" transform="translate(597 33)"><circle cx="12" cy="12" r="12"/><circle cx="76" cy="12" r="12"/><circle cx="44" cy="12" r="12"/><circle cx="108" cy="12" r="12"/></g></g></g><g transform="translate(706 218)"><use xlink:href="#i" fill="#000" filter="url(#h)"/><use xlink:href="#i" fill="#FFF"/></g><g transform="translate(706 218)"><use xlink:href="#k" fill="#000" filter="url(#j)"/><use xlink:href="#k" fill="#00252E"/></g><g transform="translate(738.1 236.8)"><rect width="104" height="20.5" fill="#E1E8EE" rx="4.3"/><g fill="#D8D8D8" transform="translate(226.4 1.7)"><rect width="27.3" height="3.4" rx="1.7"/><rect width="27.3" height="3.4" y="6.8" rx="1.7"/><rect width="27.3" height="3.4" y="13.7" rx="1.7"/></g></g><g transform="translate(738 326)"><circle cx="15" cy="15" r="15" fill="url(#e)"/><g fill="#E1E8EE" transform="translate(46 3)"><rect width="57.5" height="5.3" rx=".9"/><rect width="200" height="2.7" y="10.7" rx=".9"/><rect width="183.3" height="2.7" y="16" rx=".9"/><rect width="166.7" height="2.7" y="21.3" rx=".9"/></g></g><g transform="translate(738 464)"><circle cx="15" cy="15" r="15" fill="url(#e)"/><g fill="#E1E8EE" transform="translate(46 3)"><rect width="57.5" height="5.3" rx=".9"/><rect width="200" height="2.7" y="10.7" rx=".9"/><rect width="183.3" height="2.7" y="16" rx=".9"/><rect width="166.7" height="2.7" y="21.3" rx=".9"/></g></g><g transform="translate(738 372)"><g fill="#E1E8EE" transform="translate(46 3)"><rect width="57.5" height="5.3" rx=".9"/><rect width="200" height="2.7" y="10.7" rx=".9"/><rect width="183.3" height="2.7" y="16" rx=".9"/><rect width="166.7" height="2.7" y="21.3" rx=".9"/></g><circle cx="15" cy="15" r="15" fill="url(#f)"/></g><g transform="translate(738 510)"><g fill="#E1E8EE" transform="translate(46 3)"><rect width="57.5" height="5.3" rx=".9"/><rect width="200" height="2.7" y="10.7" rx=".9"/><rect width="183.3" height="2.7" y="16" rx=".9"/><rect width="166.7" height="2.7" y="21.3" rx=".9"/></g><circle cx="15" cy="15" r="15" fill="url(#f)"/></g><g transform="translate(738 418)"><g fill="#E1E8EE" transform="translate(46 3)"><rect width="57.5" height="5.3" rx=".9"/><rect width="200" height="2.7" y="10.7" rx=".9"/><rect width="183.3" height="2.7" y="16" rx=".9"/><rect width="166.7" height="2.7" y="21.3" rx=".9"/></g><circle cx="15" cy="15" r="15" fill="url(#g)"/></g><g transform="translate(738 556)"><g fill="#E1E8EE" transform="translate(46 3)"><rect width="57.5" height="5.3" rx=".9"/><rect width="200" height="2.7" y="10.7" rx=".9"/><rect width="183.3" height="2.7" y="16" rx=".9"/><rect width="166.7" height="2.7" y="21.3" rx=".9"/></g><circle cx="15" cy="15" r="15" fill="url(#g)"/></g><g transform="translate(738 602)"><circle cx="15" cy="15" r="15" fill="url(#e)"/><g fill="#E1E8EE" transform="translate(46 3)"><rect width="57.5" height="5.3" rx=".9"/><rect width="200" height="2.7" y="10.7" rx=".9"/><rect width="183.3" height="2.7" y="16" rx=".9"/><rect width="166.7" height="2.7" y="21.3" rx=".9"/></g></g><g transform="translate(738 648)"><g fill="#E1E8EE" transform="translate(46 3)"><rect width="57.5" height="5.3" rx=".9"/><rect width="200" height="2.7" y="10.7" rx=".9"/><rect width="183.3" height="2.7" y="16" rx=".9"/><rect width="166.7" height="2.7" y="21.3" rx=".9"/></g><circle cx="15" cy="15" r="15" fill="url(#f)"/></g></g></svg>